<svg width="100" height="100" viewBox="0 0 100 100" fill="none" xmlns="http://www.w3.org/2000/svg">
<circle cx="50" cy="50" r="50" fill="black"/>
<path d="M23.9239 20.0137C30.6444 14.8057 39.7116 11.5 48.966 11.5C70.7648 11.5 88.5016 28.7612 88.5016 49.9908C88.5016 71.2204 70.7648 88.9962 48.9738 88.4894C40.1482 88.2867 34.7609 86.5793 28.2275 82.0808C28.2275 82.0808 28.2041 82.0652 28.1885 82.0496C28.0638 81.9716 28.0482 81.7767 28.095 81.7066C28.173 81.5974 28.3523 81.652 28.4536 81.691C32.6247 83.2892 34.8311 83.4062 39.5089 83.3282C58.2983 83.0008 73.2674 68.3747 73.2674 49.9986C73.2674 31.6225 57.9708 16.669 39.1815 16.669C34.0592 16.669 28.5394 18.4544 24.1812 20.4347C23.9161 20.5594 23.69 20.193 23.9239 20.0137Z" fill="white"/>
<path d="M28.0486 26.9447C28.0958 26.9447 28.1429 26.9526 28.1901 26.9605C28.1429 26.9605 28.0958 26.9526 28.0486 26.9447Z" fill="white"/>
<path d="M43.7892 49.9986C43.7892 41.1497 36.7256 33.8757 27.7909 33.2052C27.6116 33.1896 27.4635 33.3533 27.4791 33.5326C27.518 33.8522 27.5571 34.172 27.5804 34.4916C27.6584 35.3648 27.7052 36.2692 27.7208 37.1891C27.7442 37.5945 27.7442 37.9531 27.7442 38.2494C27.7442 48.9305 23.9785 57.6391 16.8604 63.4396L16.837 63.4552C16.837 63.4552 16.8214 63.463 16.8214 63.4708L16.8175 63.4739C16.7029 63.5656 16.6344 63.6204 16.6421 63.7515L16.6424 63.7559C16.6499 63.8463 16.6532 63.8861 16.8604 64.0165C19.6359 65.7629 22.8948 66.8544 26.4422 66.8544C36.0006 66.8544 43.7814 59.2997 43.7814 50.0064L43.7892 49.9986Z" fill="white"/>
<path d="M36.0629 23.0231C37.0921 22.9061 38.1134 22.836 39.1659 22.836C54.556 22.836 67.0771 35.0217 67.0771 49.9908C67.0771 64.9599 54.556 77.1457 39.1659 77.1457C34.106 77.1457 27.635 75.524 23.3704 73.1929C23.191 73.0837 23.1755 72.9044 23.2144 72.8187C23.2378 72.7641 23.3236 72.6394 23.5497 72.6783C24.3995 72.8966 25.5378 72.92 25.99 72.92C38.9554 72.92 50.0575 62.9484 49.9483 49.9908C49.8704 39.7074 43.0641 30.9832 33.5525 28.0362C32.6871 27.7711 31.7983 27.5684 30.8939 27.4047C30.1688 27.2331 29.2255 27.0694 28.1808 26.9525C28.134 26.9447 28.0872 26.9369 28.0404 26.9369C28.0219 26.9346 28.0027 26.9316 27.983 26.9285C27.9364 26.9212 27.8871 26.9135 27.8377 26.9135C27.3867 26.8676 26.9657 26.8442 26.5526 26.8213L26.5279 26.8199C26.2316 26.8199 26.1459 26.7576 26.1303 26.6562C26.1147 26.5548 26.1537 26.3599 26.4188 26.204C27.3153 25.5881 28.3133 24.9878 29.7634 24.4498C31.7671 23.7481 33.8721 23.2648 36.0629 23.0231Z" fill="white"/>
</svg>
